<?xml version="1.0" encoding="utf-8"?>
<!-- Generator: Adobe Illustrator 23.0.2, SVG Export Plug-In . SVG Version: 6.00 Build 0)  -->
<svg version="1.1" id="Layer_1" xmlns="http://www.w3.org/2000/svg" xmlns:xlink="http://www.w3.org/1999/xlink" x="0px" y="0px"
	 width="104.8px" height="102.8px" viewBox="0 0 104.8 102.8" style="enable-background:new 0 0 104.8 102.8;" xml:space="preserve"
	>
<style type="text/css">
	.st0{fill:#E8F6FB;}
</style>
<path id="two_fish_2_" class="st0" d="M37.3,78.2c-0.3,7.9,2,12,4.9,19.2c-2.2-2-4.1-3.7-6.3-5.7c0.5,1.2,0.8,2,1.1,2.8
	c-5.2-2.8-11.1-12.7-11.3-19.6c-0.1-2.9-0.8-4.9-2.9-7c-5.1-5-7.2-11.5-7.3-18.6c-0.1-2.8-1.1-4.5-3.5-5.7C8.3,41.7,0,38.4,0,37.4
	c0-1,3.3-1.4,4.6-2c-0.3-1-1.6-2.8-1.1-3.4c0.7-0.8,2.4-0.1,3.4,0c8.7,1.1,14.7-2.1,18.5-9.7c0.4-0.9,1.4-1.6,2.2-2.2
	c3.9-2.7,7.8-5.2,11.6-8c15.8-11.3,33-15,51.9-9.6c1.5,0.4,2.9,1.1,4.3,1.7c1,0.4,2,1,3,1.9c-1,0-2,0-2.9,0
	c-10.3,0.2-17.6,5.2-17.3,16.2c0.1,5.1,1.2,10.3,1.8,15.4c0.4,3.9,0.9,7.8,1.2,11.7c0.2,3.1,1.4,4.1,4.4,3.1
	c5.5-1.7,11-3.6,16.4-5.4c0.7-0.2,1.5-0.3,2.8-0.6c-3,6.3-6.2,11.9-8.2,17.9c-2,6-5.4,12.4-4.4,19.1l0,0c-1-1.5-2.2-2.9-3.1-4.4
	c-1.6-2.6-2.9-5.4-4.5-8c-0.8-1.2-2.1-2.2-3.4-3c-2-1.1-2.2,0.1-3.5,2.6c-3.3-1.4-4.3,1.3-5.6,2.2c-3.4,3.5-6.5,11.4-7,18.2
	c-0.2,2.9-0.3,5.8-0.4,8.8c-0.1,4.1-1.8,2.8-3.5,2.1c-1.7-0.6-4.2-2.6-5.3-3.9c-4-4.5-7.1-8.1-10.6-13c-1.5-2.1-2.8-4.2-5.3-5.4
	L37.3,78.2z"/>
</svg>
