<?xml version="1.0" encoding="utf-8"?>
<!-- Generator: Adobe Illustrator 23.0.2, SVG Export Plug-In . SVG Version: 6.00 Build 0)  -->
<svg version="1.1" id="Layer_1" xmlns="http://www.w3.org/2000/svg" xmlns:xlink="http://www.w3.org/1999/xlink" x="0px" y="0px"
	 viewBox="0 0 209.2 224.3" style="enable-background:new 0 0 209.2 224.3;" xml:space="preserve">
<style type="text/css">
	.st0{fill:#2B0D46;}
	.st1{fill:#7748A2;}
	.st2{fill:#DDD1E8;}
	.st3{fill:#3E096E;}
	.st4{fill:#551A8B;}
	.st5{opacity:0.11;}
	.st6{fill:none;}
	.st7{fill:#FBCE79;}
	.st8{fill:#F8AD20;}
</style>
<polygon class="st0" points="729.3,546.7 727.3,286.6 948.6,160 952.8,412.8 "/>
<polygon class="st1" points="723.1,32 501.5,159.4 723.1,288 948.6,160 "/>
<ellipse class="st2" cx="721.2" cy="69.1" rx="21" ry="16.5"/>
<ellipse class="st3" cx="572.8" cy="155.7" rx="21" ry="16.5"/>
<ellipse class="st3" cx="721.2" cy="249.3" rx="21" ry="16.5"/>
<polygon class="st4" points="501.5,159.4 505.4,419.3 729.2,547.2 727.3,286.6 "/>
<polygon class="st2" points="522,370.1 522,244.1 702.1,347.7 702.1,475.6 "/>
<g id="nz8qqN_1_" class="st5">
	
		<image style="overflow:visible;enable-background:new    ;" width="6258" height="4742" id="nz8qqN" xlink:href="92C2E6E6AE125662.jpeg"  transform="matrix(0.1198 0 0 0.1198 365.748 25)">
	</image>
</g>
<ellipse cx="727.3" cy="155.7" rx="93.9" ry="62.1"/>
<ellipse transform="matrix(0.9948 -0.1017 0.1017 0.9948 -30.0584 57.4056)" class="st3" cx="548" cy="323.5" rx="15.2" ry="16.1"/>
<ellipse transform="matrix(0.9948 -0.1017 0.1017 0.9948 -32.1859 61.8149)" class="st3" cx="590.1" cy="346.6" rx="15.2" ry="16.1"/>
<ellipse transform="matrix(0.9948 -0.1017 0.1017 0.9948 -34.457 66.2305)" class="st3" cx="632.3" cy="371" rx="15.2" ry="16.1"/>
<ellipse transform="matrix(0.9948 -0.1017 0.1017 0.9948 -36.7622 70.7335)" class="st3" cx="675.3" cy="395.9" rx="15.2" ry="16.1"/>
<circle class="st3" cx="546.8" cy="293.7" r="1.5"/>
<circle class="st3" cx="593.3" cy="319.5" r="1.5"/>
<circle class="st3" cx="597.8" cy="321.9" r="1.5"/>
<circle class="st3" cx="633.6" cy="343.7" r="1.5"/>
<circle class="st3" cx="639.2" cy="346.7" r="1.5"/>
<circle class="st3" cx="644.7" cy="350" r="1.5"/>
<circle class="st3" cx="676.1" cy="367.9" r="1.5"/>
<circle class="st3" cx="680.2" cy="370.5" r="1.5"/>
<circle class="st3" cx="684.5" cy="372.8" r="1.5"/>
<circle class="st3" cx="688.4" cy="375" r="1.5"/>
<line class="st6" x1="524.7" y1="311" x2="697.5" y2="408.1"/>
<ellipse class="st7" cx="104.9" cy="208.6" rx="104.3" ry="15.6"/>
<circle class="st8" cx="104.3" cy="104.3" r="104.3"/>
<path class="st7" d="M727.4,248"/>
<line class="st6" x1="791.9" y1="283" x2="791.9" y2="477.4"/>
<polygon class="st6" points="847.8,407 847.8,401.6 835.5,408.8 835.5,393.8 832.2,395.8 832.2,410.6 819.9,417.9 819.9,423.3 
	832.2,416.2 832.2,431.9 835.5,429.9 835.5,414.2 "/>
<polygon class="st6" points="863.4,377.2 860.1,379.2 860.1,394.3 847.8,401.6 847.8,407 860.1,399.9 860.1,415.3 863.4,413.3 
	863.4,397.9 875.7,390.8 875.7,385.3 863.4,392.6 "/>
<polygon class="st6" points="863.4,324.3 863.4,309 860.1,311 860.1,326 847.8,333.3 847.8,335.9 860.1,328.7 860.1,344 
	863.4,342.1 863.4,326.8 875.7,319.6 875.7,317 "/>
<polygon class="st6" points="835.5,325.6 832.2,327.6 832.2,342.3 819.9,349.6 819.9,367.9 835.5,358.6 835.5,343 847.8,335.9 
	847.8,333.3 835.5,340.5 "/>
<polygon class="st6" points="835.5,358.6 819.9,367.9 819.9,387 832.2,379.9 832.2,395.8 835.5,393.8 835.5,377.9 847.8,370.8 
	847.8,366.7 835.5,373.9 "/>
<polygon class="st6" points="847.8,298.4 847.8,302.5 860.1,295.3 860.1,311 863.4,309 863.4,293.4 875.7,286.2 875.7,282.1 
	863.4,289.4 863.4,273.9 860.1,275.9 860.1,291.1 "/>
<polygon class="st6" points="863.4,342.1 860.1,344 860.1,359.4 847.8,366.7 847.8,370.8 860.1,363.6 860.1,379.2 863.4,377.2 
	863.4,361.6 875.7,354.5 875.7,350.4 863.4,357.7 "/>
<polygon points="787.9,301.9 775.6,309 775.6,325.6 787.9,318.3 "/>
<polygon points="787.9,322.9 775.6,330 775.6,346.7 787.9,339.4 "/>
<polygon points="787.9,344.9 775.6,352 775.6,368.7 787.9,361.4 "/>
<polygon points="787.9,365.4 775.6,372.5 775.6,389.2 787.9,381.9 "/>
<polygon points="787.9,385.4 775.6,392.5 775.6,409.2 787.9,401.9 "/>
<polygon points="787.9,406.4 775.6,413.5 775.6,430.2 787.9,422.9 "/>
<polygon points="787.9,427.9 775.6,435.1 775.6,451.7 787.9,444.4 "/>
<polygon points="787.9,450 775.6,457.1 775.6,473.8 787.9,466.5 "/>
<polygon points="787.9,472 775.6,479.1 775.6,495.8 787.9,488.4 "/>
<polygon points="804.2,292.2 791.9,299.4 791.9,316 804.2,308.7 "/>
<polygon points="804.2,313.2 791.9,320.4 791.9,337 804.2,329.7 "/>
<polygon points="804.2,335.2 791.9,342.4 791.9,359 804.2,351.7 "/>
<polygon points="804.2,355.7 791.9,362.9 791.9,379.5 804.2,372.2 "/>
<polygon points="804.2,375.8 791.9,382.9 791.9,399.6 804.2,392.2 "/>
<polygon points="804.2,396.7 791.9,403.9 791.9,420.5 804.2,413.2 "/>
<polygon points="804.2,418.3 791.9,425.5 791.9,442.1 804.2,434.8 "/>
<polygon points="804.2,440.3 791.9,447.5 791.9,464.1 804.2,456.8 "/>
<polygon points="804.2,462.3 791.9,469.5 791.9,486.1 804.2,478.8 "/>
<polygon points="821.2,283.3 808.9,290.4 808.9,307.1 821.2,299.8 "/>
<polygon points="821.2,304.3 808.9,311.5 808.9,328.1 821.2,320.8 "/>
<polygon points="821.2,326.3 808.9,333.4 808.9,350.1 821.2,342.8 "/>
<polygon points="821.2,346.8 808.9,353.9 808.9,370.6 821.2,363.3 "/>
<polygon points="821.2,366.8 808.9,374 808.9,390.6 821.2,383.3 "/>
<polygon points="821.2,387.8 808.9,394.9 808.9,411.6 821.2,404.3 "/>
<polygon points="821.2,409.4 808.9,416.5 808.9,433.1 821.2,425.8 "/>
<polygon points="821.2,431.4 808.9,438.5 808.9,455.2 821.2,447.9 "/>
<polygon points="821.2,453.4 808.9,460.5 808.9,477.2 821.2,469.9 "/>
<polygon points="839.4,272.2 827.1,279.4 827.1,296 839.4,288.7 "/>
<polygon points="839.4,293.3 827.1,300.4 827.1,317 839.4,309.8 "/>
<polygon points="839.4,315.2 827.1,322.4 827.1,339 839.4,331.7 "/>
<polygon points="839.4,335.7 827.1,342.9 827.1,359.5 839.4,352.2 "/>
<polygon points="839.4,355.8 827.1,362.9 827.1,379.6 839.4,372.3 "/>
<polygon points="839.4,376.8 827.1,383.9 827.1,400.5 839.4,393.2 "/>
<polygon points="839.4,398.3 827.1,405.5 827.1,422.1 839.4,414.8 "/>
<polygon points="839.4,420.4 827.1,427.5 827.1,444.1 839.4,436.8 "/>
<polygon points="839.4,442.3 827.1,449.5 827.1,466.1 839.4,458.8 "/>
<polygon points="855.7,262.6 843.4,269.7 843.4,286.4 855.7,279.1 "/>
<polygon points="855.7,283.6 843.4,290.8 843.4,307.4 855.7,300.1 "/>
<polygon points="855.7,305.6 843.4,312.8 843.4,329.4 855.7,322.1 "/>
<polygon points="855.7,326.1 843.4,333.2 843.4,349.9 855.7,342.6 "/>
<polygon points="855.7,346.1 843.4,353.3 843.4,369.9 855.7,362.6 "/>
<polygon points="855.7,367.1 843.4,374.3 843.4,390.9 855.7,383.6 "/>
<polygon points="855.7,388.7 843.4,395.8 843.4,412.5 855.7,405.2 "/>
<polygon points="855.7,410.7 843.4,417.9 843.4,434.5 855.7,427.2 "/>
<polygon points="855.7,432.7 843.4,439.8 843.4,456.5 855.7,449.2 "/>
<polygon points="872.7,253.6 860.4,260.8 860.4,277.4 872.7,270.1 "/>
<polygon points="872.7,274.7 860.4,281.8 860.4,298.5 872.7,291.2 "/>
<polygon points="872.7,296.6 860.4,303.8 860.4,320.4 872.7,313.1 "/>
<polygon points="872.7,317.1 860.4,324.3 860.4,340.9 872.7,333.6 "/>
<polygon points="872.7,337.2 860.4,344.3 860.4,361 872.7,353.7 "/>
<polygon points="872.7,358.2 860.4,365.3 860.4,382 872.7,374.6 "/>
<polygon points="872.7,379.7 860.4,386.9 860.4,403.5 872.7,396.2 "/>
<polygon points="872.7,401.8 860.4,408.9 860.4,425.6 872.7,418.2 "/>
<polygon points="872.7,423.7 860.4,430.9 860.4,447.5 872.7,440.2 "/>
<polygon points="891.1,243.6 878.8,250.8 878.8,267.4 891.1,260.1 "/>
<polygon points="891.1,264.6 878.8,271.8 878.8,288.4 891.1,281.1 "/>
<polygon points="891.1,286.6 878.8,293.8 878.8,310.4 891.1,303.1 "/>
<polygon points="891.1,307.1 878.8,314.3 878.8,330.9 891.1,323.6 "/>
<polygon points="891.1,327.2 878.8,334.3 878.8,351 891.1,343.6 "/>
<polygon points="891.1,348.1 878.8,355.3 878.8,371.9 891.1,364.6 "/>
<polygon points="891.1,369.7 878.8,376.9 878.8,393.5 891.1,386.2 "/>
<polygon points="891.1,391.7 878.8,398.9 878.8,415.5 891.1,408.2 "/>
<polygon points="891.1,413.7 878.8,420.9 878.8,437.5 891.1,430.2 "/>
<polygon points="907.4,234 895.1,241.1 895.1,257.8 907.4,250.5 "/>
<polygon points="907.4,255 895.1,262.2 895.1,278.8 907.4,271.5 "/>
<polygon points="907.4,277 895.1,284.1 895.1,300.8 907.4,293.5 "/>
<polygon points="907.4,297.5 895.1,304.6 895.1,321.3 907.4,314 "/>
<polygon points="907.4,317.5 895.1,324.7 895.1,341.3 907.4,334 "/>
<polygon points="907.4,338.5 895.1,345.6 895.1,362.3 907.4,355 "/>
<polygon points="907.4,360.1 895.1,367.2 895.1,383.9 907.4,376.5 "/>
<polygon points="907.4,382.1 895.1,389.2 895.1,405.9 907.4,398.6 "/>
<polygon points="907.4,404.1 895.1,411.2 895.1,427.9 907.4,420.6 "/>
<polygon points="924.4,225 912.1,232.2 912.1,248.8 924.4,241.5 "/>
<polygon points="924.4,246.1 912.1,253.2 912.1,269.9 924.4,262.5 "/>
<polygon points="924.4,268 912.1,275.2 912.1,291.8 924.4,284.5 "/>
<polygon points="924.4,288.5 912.1,295.7 912.1,312.3 924.4,305 "/>
<polygon points="924.4,308.6 912.1,315.7 912.1,332.4 924.4,325.1 "/>
<polygon points="924.4,329.5 912.1,336.7 912.1,353.3 924.4,346 "/>
<polygon points="924.4,351.1 912.1,358.3 912.1,374.9 924.4,367.6 "/>
<polygon points="924.4,373.1 912.1,380.3 912.1,396.9 924.4,389.6 "/>
<polygon points="924.4,395.1 912.1,402.3 912.1,418.9 924.4,411.6 "/>
</svg>
