<?xml version="1.0" encoding="utf-8"?>
<!-- Generator: Adobe Illustrator 23.0.2, SVG Export Plug-In . SVG Version: 6.00 Build 0)  -->
<svg version="1.2" baseProfile="tiny" id="Layer_1" xmlns="http://www.w3.org/2000/svg" xmlns:xlink="http://www.w3.org/1999/xlink"
	 x="0px" y="0px" width="97.5px" height="106.3px" viewBox="0 0 97.5 106.3" xml:space="preserve">
<g>
	<path id="back_crane_1_" fill="#868686" d="M69.7,35.9l-21.4,9.1L69,65.7L54.1,80.6v25.7l43.4-43.4C97.6,63.1,69.7,35.9,69.7,35.9z
		"/>
	<g>
		<rect x="-185.8" y="-1146.6" fill="#DC996D" width="7.4" height="1253.5"/>
		<image width="8" height="512" xlink:href="6E5E62314F8D9FE2.png"  transform="matrix(1 0 0 1 -185.8605 -405.1388)">
		</image>
	</g>
	<g id="Left_Claw_1_">
		<polygon fill="#808080" points="27.5,29.2 69.9,29.2 84.8,0 11.8,0 		"/>
		<circle fill="#999999" cx="32.1" cy="13.8" r="3.9"/>
		<circle fill="#999999" cx="63.9" cy="13.8" r="3.9"/>
		<path fill="#868686" d="M49.1,45.1c0,0-21,18.6-23.8,21.4l15.6,15.6l0.4,24.8L-0.7,65l28.1-28.1L49.1,45.1z"/>
		<path fill="#B3B3B3" d="M27.6,28.1V37l21.4,8l21.4-8.9v-8C70.5,28.1,28,28.1,27.6,28.1z"/>
	</g>
</g>
</svg>
