<?xml version="1.0" encoding="utf-8"?>
<!-- Generator: Adobe Illustrator 23.0.3, SVG Export Plug-In . SVG Version: 6.00 Build 0)  -->
<svg version="1.1" id="Layer_1" xmlns="http://www.w3.org/2000/svg" xmlns:xlink="http://www.w3.org/1999/xlink" x="0px" y="0px"
	 viewBox="0 0 51.5 142.7" style="enable-background:new 0 0 51.5 142.7;" xml:space="preserve">
<style type="text/css">
	.st0{fill:#E8F6FB;}
	.st1{fill:#E6E6E6;}
	.st2{opacity:0.25;fill:#999999;enable-background:new    ;}
	.st3{fill:#5B9EC3;}
	.st4{fill:#0000FF;}
	.st5{fill:#FFFFFF;}
</style>
<g id="dumb_trash_3_">
	<g>
		<rect x="17.9" y="11.8" class="st0" width="15.9" height="8.3"/>
		<path class="st0" d="M51.5,35.6c0-8.5-7-15.5-15.5-15.5H15.6c-8.5,0-15.5,7-15.5,15.5V67C0,67.4,0,67.9,0,68.3v66.3
			c0,4.4,3.6,8.1,8.1,8.1h35.2c4.5,0,8.1-3.6,8.1-8.1V88.9c0.1-0.6,0.1-1.2,0.1-1.8V35.6z"/>
		<g>
			<rect x="14.7" class="st1" width="22.2" height="11.8"/>
			<g>
				<rect x="17.3" y="2.3" class="st2" width="1.1" height="6.5"/>
				<rect x="19.5" y="2.3" class="st2" width="1.1" height="6.5"/>
				<rect x="21.6" y="2.3" class="st2" width="1.1" height="6.5"/>
				<rect x="23.8" y="2.3" class="st2" width="1.1" height="6.5"/>
				<rect x="26" y="2.3" class="st2" width="1.1" height="6.5"/>
				<rect x="28.2" y="2.3" class="st2" width="1.1" height="6.5"/>
				<rect x="30.4" y="2.3" class="st2" width="1.1" height="6.5"/>
				<rect x="32.5" y="2.3" class="st2" width="1.1" height="6.5"/>
			</g>
		</g>
	</g>
	<rect y="43.9" class="st3" width="19.4" height="79.2"/>
	<g>
		<path class="st4" d="M4.9,112.1H16v2.7h-1.1v0c0.5,0.2,0.8,0.4,1,0.7c0.2,0.3,0.3,0.7,0.3,1.2c0,0.9-0.4,1.6-1.1,2
			s-1.9,0.6-3.5,0.6c-0.8,0-1.5-0.1-2-0.2c-0.5-0.1-1-0.3-1.3-0.5s-0.6-0.5-0.7-0.8s-0.2-0.7-0.2-1.1c0-0.4,0.1-0.8,0.3-1.1
			c0.2-0.3,0.5-0.6,0.9-0.7v0H4.9V112.1z M12.9,116.5c0.3,0,0.5-0.1,0.7-0.1c0.2-0.1,0.3-0.1,0.4-0.2s0.1-0.2,0.1-0.4s0-0.3-0.1-0.4
			s-0.2-0.2-0.4-0.2s-0.4-0.1-0.7-0.1s-0.7,0-1.1,0c-0.5,0-0.8,0-1.1,0s-0.5,0.1-0.7,0.1c-0.2,0.1-0.3,0.1-0.4,0.2s-0.1,0.2-0.1,0.4
			c0,0.2,0,0.3,0.1,0.4s0.2,0.2,0.4,0.2s0.4,0.1,0.7,0.1c0.3,0,0.7,0,1.1,0C12.2,116.5,12.6,116.5,12.9,116.5z"/>
		<path class="st4" d="M7.6,108.2h5.6c0.4,0,0.6-0.1,0.8-0.2c0.2-0.1,0.2-0.3,0.2-0.5s-0.1-0.4-0.2-0.5c-0.2-0.1-0.4-0.2-0.8-0.2
			H7.6V104H16v2.7h-1v0c0.8,0.3,1.2,1,1.2,2c0,0.3,0,0.6-0.1,0.9c-0.1,0.3-0.2,0.5-0.3,0.7s-0.4,0.3-0.7,0.5
			c-0.3,0.1-0.7,0.2-1.1,0.2H7.6V108.2z"/>
		<path class="st4" d="M9.6,98.9c-0.2,0.1-0.2,0.3-0.2,0.5s0.1,0.4,0.2,0.5c0.2,0.1,0.4,0.2,0.8,0.2H16v2.8H7.6v-2.7h1v0
			c-0.8-0.4-1.2-1-1.2-2c0-0.6,0.1-1,0.3-1.3c0.2-0.3,0.5-0.6,1-0.7c-0.5-0.2-0.8-0.5-1-0.9c-0.2-0.4-0.3-0.8-0.3-1.2
			c0-0.3,0-0.6,0.1-0.9c0.1-0.3,0.2-0.5,0.4-0.7c0.2-0.2,0.4-0.3,0.7-0.5c0.3-0.1,0.7-0.2,1.1-0.2H16v2.8h-5.6
			c-0.4,0-0.6,0.1-0.8,0.2c-0.2,0.1-0.2,0.3-0.2,0.5s0.1,0.4,0.2,0.5c0.2,0.1,0.4,0.2,0.8,0.2H16v2.8h-5.6
			C10.1,98.8,9.8,98.8,9.6,98.9z"/>
		<path class="st4" d="M4.9,87.9h3.6v0c-0.4-0.2-0.7-0.4-0.9-0.7c-0.2-0.3-0.3-0.7-0.3-1.1s0.1-0.8,0.2-1.1s0.4-0.6,0.7-0.8
			s0.8-0.4,1.3-0.5c0.6-0.1,1.2-0.2,2-0.2c1.6,0,2.7,0.2,3.5,0.6c0.7,0.4,1.1,1,1.1,2c0,0.5-0.1,0.9-0.3,1.2c-0.2,0.3-0.6,0.5-1,0.7
			v0H16v2.7H4.9V87.9z M12.9,87.8c0.3,0,0.5-0.1,0.7-0.1c0.2-0.1,0.3-0.1,0.4-0.2s0.1-0.2,0.1-0.4c0-0.2,0-0.3-0.1-0.4
			s-0.2-0.2-0.4-0.2s-0.4-0.1-0.7-0.1c-0.3,0-0.7,0-1.1,0c-0.5,0-0.8,0-1.1,0s-0.5,0.1-0.7,0.1c-0.2,0.1-0.3,0.1-0.4,0.2
			s-0.1,0.2-0.1,0.4s0,0.3,0.1,0.4s0.2,0.2,0.4,0.2s0.4,0.1,0.7,0.1c0.3,0,0.7,0,1.1,0C12.2,87.9,12.6,87.9,12.9,87.8z"/>
		<path class="st5" d="M15.3,80.3L15.3,80.3L8,78.1v-0.8l7.3-2.2v0L8,72.9v-0.7l8,2.6v0.7l-7.3,2.2v0l7.3,2.2v0.8l-8,2.5v-0.6
			L15.3,80.3z"/>
		<path class="st5" d="M14.4,66L14.4,66c0.2,0.1,0.5,0.3,0.7,0.4s0.4,0.4,0.6,0.7c0.2,0.2,0.3,0.5,0.4,0.9c0.1,0.3,0.1,0.7,0.1,1.1
			c0,0.8-0.2,1.5-0.6,2s-0.9,0.7-1.7,0.7c-0.5,0-0.9-0.1-1.1-0.3c-0.3-0.2-0.5-0.4-0.7-0.7s-0.3-0.6-0.4-0.9c-0.1-0.3-0.1-0.7-0.2-1
			l-0.1-0.9c0-0.4-0.1-0.8-0.1-1s-0.2-0.4-0.3-0.6s-0.3-0.2-0.5-0.2s-0.4-0.1-0.7-0.1c-0.2,0-0.4,0-0.6,0.1s-0.4,0.2-0.5,0.4
			S8.5,67,8.4,67.3s-0.1,0.6-0.1,1c0,0.7,0.2,1.3,0.5,1.7c0.4,0.4,0.9,0.7,1.6,0.7v0.6c-0.9,0-1.5-0.3-2-0.8
			c-0.4-0.5-0.7-1.3-0.7-2.2s0.2-1.7,0.6-2.1c0.4-0.4,0.9-0.7,1.5-0.7h4.7c0.1,0,0.2,0,0.3,0c0.1,0,0.2,0,0.3-0.1
			c0.1,0,0.2-0.1,0.2-0.2c0.1-0.1,0.1-0.2,0.1-0.3c0-0.1,0-0.2-0.1-0.4h0.5c0,0.2,0.1,0.3,0.1,0.5c0,0.2,0,0.4-0.1,0.6
			s-0.1,0.2-0.2,0.3S15.4,66,15.3,66s-0.3,0-0.5,0L14.4,66L14.4,66z M11.4,66c0.2,0.2,0.3,0.4,0.4,0.7c0.1,0.3,0.1,0.6,0.1,1l0.1,1
			c0,0.3,0.1,0.6,0.1,0.9s0.1,0.6,0.3,0.8c0.1,0.2,0.3,0.4,0.6,0.6c0.2,0.2,0.5,0.2,0.9,0.2c0.6,0,1-0.2,1.3-0.6
			c0.3-0.4,0.4-0.9,0.4-1.5c0-0.7-0.1-1.2-0.4-1.6c-0.2-0.4-0.5-0.7-0.8-0.9s-0.6-0.3-0.9-0.4c-0.3-0.1-0.5-0.1-0.6-0.1L11.4,66
			L11.4,66z"/>
		<path class="st5" d="M8.5,60.6v1.8h5.6c0.3,0,0.6,0,0.8-0.1c0.2-0.1,0.3-0.2,0.4-0.3s0.2-0.3,0.2-0.5s0-0.5,0-0.7H16
			c0,0.3,0,0.6,0,0.9c0,0.3-0.1,0.5-0.2,0.8c-0.1,0.2-0.3,0.4-0.6,0.5s-0.6,0.2-1.1,0.2H8.5v1.5H8V63H5.5v-0.6H8v-1.8H8.5z"/>
		<path class="st5" d="M12.1,59.5L12.1,59.5c0.6,0,1-0.1,1.4-0.2s0.8-0.3,1.1-0.5c0.3-0.2,0.6-0.5,0.8-0.9c0.2-0.4,0.3-0.8,0.3-1.3
			c0-0.8-0.2-1.4-0.6-1.9s-1-0.8-1.8-1v-0.6c0.9,0.2,1.6,0.6,2.1,1.2s0.8,1.4,0.8,2.3c0,0.6-0.1,1.1-0.3,1.5
			c-0.2,0.4-0.5,0.8-0.9,1.1s-0.8,0.5-1.3,0.7s-1.1,0.2-1.6,0.2c-0.6,0-1.1-0.1-1.6-0.2s-1-0.4-1.4-0.7c-0.4-0.3-0.7-0.7-0.9-1.1
			c-0.2-0.5-0.3-1-0.3-1.6c0-0.6,0.1-1.1,0.3-1.5s0.5-0.8,0.9-1.1c0.4-0.3,0.8-0.5,1.2-0.7s1-0.2,1.5-0.2c0.1,0,0.1,0,0.2,0
			c0.1,0,0.1,0,0.2,0L12.1,59.5L12.1,59.5z M11.5,53.6c-0.4,0-0.9,0.1-1.2,0.2c-0.4,0.1-0.7,0.3-1,0.5C9,54.7,8.7,55,8.6,55.3
			S8.3,56,8.3,56.5c0,0.5,0.1,0.9,0.3,1.3s0.4,0.7,0.7,0.9s0.6,0.4,1,0.6c0.4,0.1,0.8,0.2,1.2,0.2C11.5,59.5,11.5,53.6,11.5,53.6z"
			/>
		<path class="st5" d="M9.8,51.1L9.8,51.1c-0.3-0.1-0.5-0.2-0.7-0.5s-0.4-0.4-0.6-0.7S8.1,49.3,8,49s-0.1-0.7-0.1-1h0.6
			c0,0.3,0,0.7,0.1,1.1s0.3,0.8,0.7,1.2c0.2,0.2,0.3,0.3,0.4,0.4s0.3,0.2,0.5,0.3c0.2,0.1,0.4,0.1,0.6,0.2c0.2,0,0.5,0.1,0.8,0.1H16
			v0.6H8v-0.6L9.8,51.1L9.8,51.1z"/>
	</g>
</g>
</svg>
