<?xml version="1.0" encoding="utf-8"?>
<!-- Generator: Adobe Illustrator 23.0.3, SVG Export Plug-In . SVG Version: 6.00 Build 0)  -->
<svg version="1.1" id="Layer_1" xmlns="http://www.w3.org/2000/svg" xmlns:xlink="http://www.w3.org/1999/xlink" x="0px" y="0px"
	 viewBox="0 0 53 56.8" style="enable-background:new 0 0 53 56.8;" xml:space="preserve">
<style type="text/css">
	.st0{fill:#FFFFFF;}
</style>
<g>
	<path class="st0" d="M52.7,12.7c-0.6-1.6-2.6-2.9-4.1-1.9c-0.6,0.4-1,1.1-1.5,1.6c-1.7,1.8-4.7,1.9-6.4,3.7
		c-0.6,0.6-0.9,1.4-1.6,1.8c-0.9,0.6-2,0.4-3.1,0.3c-1.8-0.3-2.1-0.7-2.9-2.2c-0.4-0.8-1.2-1.3-1.6-2c-1-2.2,2.1-4.9,3-6.6
		c1.1-2.1,1.2-4.6,0.3-6.8c-0.1-0.2-0.2-0.4-0.4-0.5c-0.3-0.1-0.5,0.1-0.8,0.2c-1.5,1.1-3,2.1-4.5,3.2c-1.2,0.9-2.5,1.7-3.5,2.8
		c-1.3,1.2-2.3,2.7-3.4,4.1c-1.6,2.2-3.4,4.3-5.3,6.3c-0.9,0.9-1.8,1.9-2.5,3s-1,2.5-0.6,3.7c-2.9,0.9-4.2,4.2-6.4,6.3
		c-2.3,2.2-5.8,3.3-7.1,6.2c-1.2,2.7,0.4,6.2,3.2,7.1c-0.4,0.8-0.3,1.8,0.2,2.5c0.5,0.7,1.3,1.2,2.1,1.6c1.6,0.8,3.4,1.2,5.2,1.2
		c0.9,0,1.8,0,2.6,0.4c1.2,0.6,1.7,2.1,2.8,3c1.8,1.5,4.7,1.2,6.3,2.9c0.6,0.6,0.9,1.5,1.7,2c1.6,1,3.5-0.5,5.2-1.2
		c0.2-0.1,0.4-0.1,0.5,0c0,0,0,0,0,0c1.9-1.6,4.6-2.3,5.7-4.5c0.3-0.6,0.4-1.2,0.7-1.7c0.3-0.7,0.8-1.2,1.3-1.8
		c2.3-2.9,3.9-6.3,4.5-9.9c0.1-0.4,0.1-0.9,0.4-1.2c0.7-0.6,1.7,0,2.6,0c1,0,1.7-0.9,2-1.8c0.3-0.9,0.1-1.9,0.1-2.9
		c-0.3-3.7,0.4-7.5,1.8-10.9c0.6-1.4,1.6-2.9,3.1-2.8C52.8,16.1,53.3,14.3,52.7,12.7z M30.8,6.6c-0.1,0.7-0.4,1.3-0.8,1.8
		c-0.4,0.7-0.8,1.5-1.3,2.2c-0.3,0.6-0.7,1.2-1.2,1.7c-0.1,0.1-0.3,0.2-0.5,0.3c-0.5,0.1-0.9-0.4-1-0.9c-0.2-1,0.4-2,1-2.8
		c0.5-0.7,1-1.4,1.5-2C29.2,6.1,31.1,4,30.8,6.6z M47,18.2c-0.4,1-0.9,2-1.5,2.9c-0.1,0.2-0.3,0.4-0.5,0.5c-0.4,0.3-1,0.2-1.5,0.1
		c-0.3-1.2,0-2.4,0.7-3.4c0.5-0.8,2.8-3.9,3.1-1.5C47.3,17.3,47.1,17.8,47,18.2z"/>
	<path class="st0" d="M30.1,55.3c-0.1,0.1-0.1,0.1-0.2,0.2C30,55.6,30.2,55.4,30.1,55.3z"/>
</g>
</svg>
