<?xml version="1.0" encoding="utf-8"?>
<!-- Generator: Adobe Illustrator 23.0.2, SVG Export Plug-In . SVG Version: 6.00 Build 0)  -->
<svg version="1.1" id="Layer_1" xmlns="http://www.w3.org/2000/svg" xmlns:xlink="http://www.w3.org/1999/xlink" x="0px" y="0px"
	 viewBox="0 0 234.72 199.48" style="enable-background:new 0 0 234.72 199.48;" xml:space="preserve">
<style type="text/css">
	.st0{fill:#868686;}
	.st1{fill:#EA5856;}
	.st2{fill:#F8AD20;}
	.st3{fill:#F8BC20;}
	.st4{fill:#DF9D1C;}
	.st5{fill:#DC996D;}
	.st6{opacity:0.26;}
	.st7{fill:#6A4024;}
	.st8{fill:#E8F6FB;}
	.st9{fill:#82D3F0;}
	.st10{opacity:0.5;}
	.st11{fill:#D4504E;}
	.st12{fill:none;stroke:#EA5856;stroke-linecap:round;stroke-linejoin:round;stroke-miterlimit:10;}
	.st13{fill:#808080;}
	.st14{fill:#999999;}
	.st15{fill:#B3B3B3;}
</style>
<g>
	<path id="back_crane_2_" class="st0" d="M37.85,161.46l-11.47,4.92l11.14,11.14l-8.03,8.03v13.77l23.27-23.27
		C52.77,176.05,37.85,161.43,37.85,161.46z"/>
	<g>
		<g>
			<rect x="88.37" y="27.7" class="st1" width="17.22" height="56.59"/>
			<rect x="26.38" y="13.67" class="st1" width="62.36" height="17.22"/>
		</g>
		<g>
			<circle class="st2" cx="96.97" cy="22.08" r="12.85"/>
			<circle class="st3" cx="96.97" cy="22.08" r="10.38"/>
			<circle class="st2" cx="96.97" cy="22.08" r="8.43"/>
			<circle class="st4" cx="97.03" cy="22.08" r="4.01"/>
		</g>
	</g>
	<g>
		<rect x="23.97" y="10.84" class="st5" width="4.01" height="131.27"/>
		<g class="st6">
			<polygon class="st7" points="27.87,134.03 25.38,142.1 25.63,142.1 27.99,134.42 			"/>
			<polygon class="st7" points="24.1,39.16 23.97,38.77 27.87,26.11 27.99,26.51 			"/>
			<polygon class="st7" points="24.1,43.1 23.97,42.7 27.87,30.05 27.99,30.44 			"/>
			<polygon class="st7" points="24.1,47.6 23.97,47.2 27.87,34.55 27.99,34.94 			"/>
			<polygon class="st7" points="24.1,52.1 23.97,51.7 27.87,39.05 27.99,39.44 			"/>
			<polygon class="st7" points="24.1,57.16 23.97,56.77 27.87,44.11 27.99,44.51 			"/>
			<polygon class="st7" points="24.1,61.1 23.97,60.7 27.87,48.05 27.99,48.44 			"/>
			<polygon class="st7" points="24.1,65.6 23.97,65.2 27.87,52.55 27.99,52.94 			"/>
			<polygon class="st7" points="24.1,70.1 23.97,69.7 27.87,57.05 27.99,57.44 			"/>
			<polygon class="st7" points="24.1,74.6 23.97,74.2 27.87,61.55 27.99,61.95 			"/>
			<polygon class="st7" points="24.1,78.54 23.97,78.14 27.87,65.49 27.99,65.88 			"/>
			<polygon class="st7" points="24.1,83.04 23.97,82.64 27.87,69.99 27.99,70.38 			"/>
			<polygon class="st7" points="24.1,87.54 23.97,87.14 27.87,74.49 27.99,74.88 			"/>
			<polygon class="st7" points="24.1,90.92 23.97,90.52 27.87,77.86 27.99,78.26 			"/>
			<polygon class="st7" points="24.1,94.85 23.97,94.46 27.87,81.8 27.99,82.2 			"/>
			<polygon class="st7" points="24.1,99.35 23.97,98.96 27.87,86.3 27.99,86.7 			"/>
			<polygon class="st7" points="24.1,103.85 23.97,103.46 27.87,90.8 27.99,91.2 			"/>
			<polygon class="st7" points="24.1,107.79 23.97,107.39 27.87,94.74 27.99,95.13 			"/>
			<polygon class="st7" points="24.1,112.29 23.97,111.89 27.87,99.24 27.99,99.63 			"/>
			<polygon class="st7" points="24.1,116.79 23.97,116.39 27.87,103.74 27.99,104.13 			"/>
			<polygon class="st7" points="24.1,120.17 23.97,119.77 27.87,107.11 27.99,107.51 			"/>
			<polygon class="st7" points="24.1,124.1 23.97,123.71 27.87,111.05 27.99,111.45 			"/>
			<polygon class="st7" points="24.1,128.6 23.97,128.21 27.87,115.55 27.99,115.95 			"/>
			<polygon class="st7" points="24.1,133.1 23.97,132.71 27.87,120.05 27.99,120.45 			"/>
			<polygon class="st7" points="24.1,137.6 23.97,137.21 27.87,124.55 27.99,124.95 			"/>
			<polygon class="st7" points="24.1,142.1 23.97,141.71 27.87,129.05 27.99,129.45 			"/>
		</g>
	</g>
	<g>
		<circle class="st2" cx="25.92" cy="22.08" r="12.85"/>
		<circle class="st3" cx="25.92" cy="22.08" r="10.38"/>
		<circle class="st2" cx="25.92" cy="22.08" r="8.43"/>
		<circle class="st4" cx="25.98" cy="22.08" r="4.01"/>
	</g>
	<g id="boat_base_2_">
		<g>
			<path class="st1" d="M88.6,91.12L88.6,91.12c0,9.27,11.84,16.86,26.32,16.86h82.24c14.47,0,26.32-7.59,26.32-16.86v0H88.6z"/>
		</g>
		<rect x="78.17" y="84.3" class="st8" width="156.56" height="7.23"/>
	</g>
	<g id="boat_door_2_">
		<g>
			<path class="st1" d="M180.38,84.3V24.89c0,0,5.37-11.24,21.43-11.24s21.68,11.24,21.68,11.24V84.3H180.38z"/>
			<g>
				<circle class="st2" cx="201.81" cy="38.94" r="10.04"/>
				<circle class="st9" cx="201.81" cy="38.94" r="8.43"/>
				<g class="st10">
					<path class="st8" d="M193.38,38.94c0,4.66,3.77,8.43,8.43,8.43V30.51C197.15,30.51,193.38,34.28,193.38,38.94z"/>
				</g>
				<g>
					<circle class="st4" cx="201.81" cy="29.71" r="0.4"/>
					<circle class="st4" cx="192.57" cy="38.94" r="0.4"/>
					<circle class="st4" cx="201.81" cy="48.17" r="0.4"/>
					<circle class="st4" cx="211.04" cy="38.94" r="0.4"/>
					<circle class="st4" cx="208.63" cy="45.36" r="0.4"/>
					<circle class="st4" cx="194.98" cy="45.36" r="0.4"/>
					<circle class="st4" cx="208.63" cy="32.92" r="0.4"/>
					<circle class="st4" cx="194.98" cy="32.92" r="0.4"/>
				</g>
			</g>
			<path class="st8" d="M213.05,0L213.05,0c1.77,0,3.21,1.44,3.21,3.21v12.04c0,1.77-1.44,3.21-3.21,3.21l0,0
				c-1.77,0-3.21-1.44-3.21-3.21V3.21C209.83,1.44,211.27,0,213.05,0z"/>
		</g>
		<g>
			<path class="st11" d="M192.82,84.38V59.27c0,0,2.27-4.75,9.06-4.75c6.79,0,9.16,4.75,9.16,4.75v25.11H192.82z"/>
			<path class="st12" d="M202.01,70.05h8.02c0,0,0.5,4.51-4.51,4.51"/>
		</g>
	</g>
	<g id="Left_Claw_2_">
		<polygon class="st13" points="15.06,157.82 37.94,157.82 45.88,142.1 6.72,142.1 		"/>
		<circle class="st14" cx="17.64" cy="149.56" r="2.13"/>
		<circle class="st14" cx="34.69" cy="149.56" r="2.13"/>
		<path class="st0" d="M26.71,166.38c0,0-11.31,10-12.78,11.47l8.36,8.36l0.16,13.27L0,177.03l15.08-15.08L26.71,166.38z"/>
		<path class="st15" d="M15.24,157.23v4.8l11.47,4.26l11.47-4.8v-4.29C38.18,157.2,15.43,157.23,15.24,157.23z"/>
	</g>
</g>
</svg>
