<?xml version="1.0" encoding="utf-8"?>
<!-- Generator: Adobe Illustrator 23.0.3, SVG Export Plug-In . SVG Version: 6.00 Build 0)  -->
<svg version="1.1" id="Layer_1" xmlns="http://www.w3.org/2000/svg" xmlns:xlink="http://www.w3.org/1999/xlink" x="0px" y="0px"
	 viewBox="0 0 53.6 29.8" style="enable-background:new 0 0 53.6 29.8;" xml:space="preserve">
<style type="text/css">
	.st0{fill:#F8F8F8;}
	.st1{fill:#DDDBDB;}
	.st2{fill:#FFFFFF;}
</style>
<path class="st0" d="M0.9,11.8v10.2c0,0,1.9,6.9,27.1,6.9s24.5-9.4,24.5-9.4v-8.5c0,0-3.2,6.8-25.8,6.8S0.9,11.8,0.9,11.8z"/>
<ellipse class="st1" cx="26.8" cy="9.2" rx="25.8" ry="8.4"/>
<path class="st2" d="M45.4,2.5C40.4,0.9,33.8,0,26.8,0c-7,0-13.6,0.9-18.6,2.5C2.8,4.3,0,6.7,0,9.4v11.3c0,0.3,0.1,2.6,3.7,4.8
	c4.4,2.8,12.2,4.2,23.1,4.2c10.9,0,18.7-1.4,23.1-4.2c3.5-2.2,3.7-4.6,3.7-4.8V9.4C53.6,6.7,50.7,4.3,45.4,2.5z M51.8,20.7
	c0,0.1-0.7,7.3-25,7.3c-24.3,0-25-7.2-25-7.3v-7.9c0.5,0.5,1.1,1,1.9,1.5c4.4,2.8,12.2,4.2,23.1,4.2c10.9,0,18.7-1.4,23.1-4.2
	c0.8-0.5,1.4-1,1.9-1.5V20.7z M26.8,16.7c-24.3,0-25-7.2-25-7.3c0-3.6,10.3-7.6,25-7.6c14.7,0,25,4,25,7.6
	C51.8,9.5,51.1,16.7,26.8,16.7z"/>
</svg>
