<?xml version="1.0" encoding="utf-8"?>
<!-- Generator: Adobe Illustrator 23.0.2, SVG Export Plug-In . SVG Version: 6.00 Build 0)  -->
<svg version="1.1" id="Layer_1" xmlns="http://www.w3.org/2000/svg" xmlns:xlink="http://www.w3.org/1999/xlink" x="0px" y="0px"
	 viewBox="0 0 322 286.92" style="enable-background:new 0 0 322 286.92;" xml:space="preserve">
<style type="text/css">
	.st0{fill:#E8F6FB;}
</style>
<path class="st0" d="M5.07,8.29C-6.44,21.42,1.4,73.36,31.01,99.31c20.03,17.55,44.44,24.95,63.91,21.29
	c9.23-2.13,15.82-2.3,20.74-1.7c9.22,6.42,17.34,12.45,21.24,16.28c12.13,11.88,125,138.64,154.54,147.29
	c29.54,8.65,28.75,2,28.75,2s6.7-0.08-5.75-28.24C302,228.09,161.52,132.82,148.16,122.34c-4.5-3.52-12.02-11.32-20.01-20.1
	c-1.12-4.7-1.51-10.89,0.04-19.45c1.13-19.82-9.4-43.12-29.49-60.72C69.1-3.88,16.57-4.83,5.07,8.29z"/>
</svg>
