<?xml version="1.0" encoding="utf-8"?>
<!-- Generator: Adobe Illustrator 23.0.2, SVG Export Plug-In . SVG Version: 6.00 Build 0)  -->
<svg version="1.1" id="Layer_1" xmlns="http://www.w3.org/2000/svg" xmlns:xlink="http://www.w3.org/1999/xlink" x="0px" y="0px"
	 width="142.1px" height="96.1px" viewBox="0 0 142.1 96.1" style="enable-background:new 0 0 142.1 96.1;" xml:space="preserve">
<style type="text/css">
	.st0{fill:#EA5856;}
</style>
<path id="red_fish_2_" class="st0" d="M79.9,90.6c3.1,1.6,6.3,3.2,9.7,5C83.5,90.1,77.8,85,72,79.9c0.1-0.2,0.2-0.5,0.3-0.7
	c0.6,0,1.3,0,1.9,0c11-0.2,22-0.3,32.9-0.8c5.5-0.3,11-1.5,16.5-2.3c0.6-0.1,1.2-0.3,1.8-0.5c3.7-1.4,4.8-4,2.8-7.4
	c-1.1-1.9-1.3-3.6-1.2-5.7c0.3-5.5-0.5-10.9-2.5-16c2-0.8,3.8-0.7,5.4,1.3c2,2.5,3.6,5.4,5.3,8.1c0.4,0.7,0.5,1.6,1,2.2
	c0.6,1,1.5,1,1.9-0.1c1.8-4.9,4.1-9.8,4-15.2c0-2.8-0.4-5.7-1.1-8.5c-1-3.8-2-7.6-1.2-12c-4.3,5-7.8,10.6-15.5,9.5
	c1.6-2.9,3.3-5.4,4.3-8.1c1-2.5,1.2-5.3,1.8-8c0.3-1.5,0.5-2.9,0.8-4.4c0.9-4.5-0.2-6.6-4.4-8.6C122.2,0.5,117.2,0,112,0
	C94,0,76.3,2.5,58.5,5.1C50,6.3,45,11.8,42.3,19.5c-1.5,4.3-2.3,9-3,13.5c-1.2,6.9-4,13.1-8.4,18.4c-1.6,1.9-4,3.3-6.2,4.4
	c-7.4,3.7-15.3,5.9-23.3,8C0.9,63.9,0.5,64,0,64.1c0.2,0.5,0.4,0.9,0.7,1.4c0.1,0,0.3,0,0.5,0c10.1,0.9,20.1,1.7,30.2,2.6
	c3.1,0.3,5.9,1.6,8.3,3.7c4.4,3.8,9.4,5.9,15.2,6.3c0.5,0,1.2,0.2,1.5,0.6c6.5,6.9,14.7,11.2,22.8,15.8c1,0.6,2.1,1.1,3,1.5
	c-0.9-1.8-1.8-3.6-2.8-5.4C79.6,90.7,79.7,90.6,79.9,90.6z"/>
</svg>
