<?xml version="1.0" encoding="utf-8"?>
<!-- Generator: Adobe Illustrator 23.0.2, SVG Export Plug-In . SVG Version: 6.00 Build 0)  -->
<svg version="1.1" id="Layer_1" xmlns="http://www.w3.org/2000/svg" xmlns:xlink="http://www.w3.org/1999/xlink" x="0px" y="0px"
	 viewBox="0 0 40 40" style="enable-background:new 0 0 40 40;" xml:space="preserve">
<style type="text/css">
	.st0{fill:#FFFFFF;}
</style>
<g>
	<path class="st0" d="M38.7,7.3c-0.5-0.1-1,0-1.3,0.5l-0.9,1.3C32.9,3.7,26.7,0.2,20,0.2c-8.1,0-15.6,5.1-18.5,12.7
		c-0.6,1.6,0.2,3.3,1.8,4c1.6,0.6,3.3-0.2,4-1.8c2-5.3,7.1-8.8,12.8-8.8c4.6,0,8.9,2.4,11.4,6.1L30,12.6c-0.5,0.1-0.9,0.5-1,1
		c-0.1,0.5,0.2,1,0.7,1.2l8.2,3.7c0,0,0,0,0,0c0.1,0.1,0.3,0.1,0.5,0.1c0.5,0,1-0.4,1.1-0.8c0-0.1,0.1-0.2,0.1-0.3l0-9
		C39.5,7.9,39.2,7.5,38.7,7.3z"/>
	<path class="st0" d="M36.7,23.1c-1.6-0.6-3.3,0.2-3.9,1.8c-2,5.3-7.1,8.8-12.8,8.8c-4.6,0-8.9-2.4-11.4-6.1l1.4-0.2
		c0.5-0.1,0.9-0.5,1-1c0.1-0.5-0.2-1-0.7-1.2l-8.2-3.7c0,0,0,0,0,0c-0.1-0.1-0.3-0.1-0.5-0.1c-0.5,0-1,0.4-1.1,0.8
		c0,0.1-0.1,0.2-0.1,0.3l0,9c0,0.5,0.3,1,0.8,1.1c0.5,0.2,1,0,1.3-0.5l0.9-1.3c3.6,5.5,9.8,8.9,16.5,8.9c8.1,0,15.6-5.1,18.5-12.7
		C39.1,25.5,38.3,23.7,36.7,23.1z"/>
</g>
</svg>
