<svg id="Layer_1" data-name="Layer 1" xmlns="http://www.w3.org/2000/svg" width="100" height="730.6" viewBox="0 0 100 730.6"><defs><style>.cls-1{fill:#dc996d;}.cls-2{opacity:0.26;}.cls-3{fill:#6a4024;}</style></defs><title>rope</title><rect class="cls-1" x="45.62" y="-522.88" width="7.45" height="1253.48"/><g class="cls-2"><polygon class="cls-3" points="52.88 694.91 48.23 730.6 48.6 730.6 53.07 696.68 52.88 694.91"/><polygon class="cls-3" points="45.81 276.82 45.63 275.05 52.88 219.54 53.07 221.31 45.81 276.82"/><polygon class="cls-3" points="45.81 294.44 45.63 292.68 52.88 236.72 53.07 238.49 45.81 294.44"/><polygon class="cls-3" points="45.81 314.26 45.63 312.5 52.88 256.55 53.07 258.31 45.81 314.26"/><polygon class="cls-3" points="45.81 334.09 45.63 332.33 52.88 276.38 53.07 278.14 45.81 334.09"/><polygon class="cls-3" points="45.81 356.12 45.63 354.36 52.88 298.84 53.07 300.61 45.81 356.12"/><polygon class="cls-3" points="45.81 373.74 45.63 371.98 52.88 316.03 53.07 317.79 45.81 373.74"/><polygon class="cls-3" points="45.81 393.57 45.63 391.8 52.88 335.85 53.07 337.61 45.81 393.57"/><polygon class="cls-3" points="45.81 413.39 45.63 411.63 52.88 355.68 53.07 357.44 45.81 413.39"/><polygon class="cls-3" points="45.81 433.22 45.63 431.45 52.88 375.5 53.07 377.26 45.81 433.22"/><polygon class="cls-3" points="45.81 450.4 45.63 448.64 52.88 393.13 53.07 394.45 45.81 450.4"/><polygon class="cls-3" points="45.81 470.23 45.63 468.46 52.88 412.95 53.07 414.27 45.81 470.23"/><polygon class="cls-3" points="45.81 490.05 45.63 488.29 52.88 432.78 53.07 434.1 45.81 490.05"/><polygon class="cls-3" points="45.81 505.03 45.63 503.27 52.88 447.31 53.07 449.08 45.81 505.03"/><polygon class="cls-3" points="45.81 522.21 45.63 520.45 52.88 464.94 53.07 466.7 45.81 522.21"/><polygon class="cls-3" points="45.81 542.04 45.63 540.27 52.88 484.76 53.07 486.53 45.81 542.04"/><polygon class="cls-3" points="45.81 561.86 45.63 560.1 52.88 504.59 53.07 506.35 45.81 561.86"/><polygon class="cls-3" points="45.81 579.04 45.63 577.72 52.88 521.77 53.07 523.53 45.81 579.04"/><polygon class="cls-3" points="45.81 598.87 45.63 597.55 52.88 541.6 53.07 543.36 45.81 598.87"/><polygon class="cls-3" points="45.81 618.7 45.63 617.37 52.88 561.42 53.07 563.18 45.81 618.7"/><polygon class="cls-3" points="45.81 633.67 45.63 631.91 52.88 576.4 53.07 578.16 45.81 633.67"/><polygon class="cls-3" points="45.81 651.3 45.63 649.54 52.88 593.58 53.07 595.35 45.81 651.3"/><polygon class="cls-3" points="45.81 671.12 45.63 669.36 52.88 613.41 53.07 615.17 45.81 671.12"/><polygon class="cls-3" points="45.81 690.95 45.63 689.19 52.88 633.24 53.07 635 45.81 690.95"/><polygon class="cls-3" points="45.81 710.77 45.63 709.01 52.88 653.06 53.07 654.82 45.81 710.77"/><polygon class="cls-3" points="45.81 730.6 45.63 728.84 52.88 672.89 53.07 674.65 45.81 730.6"/></g></svg>