<?xml version="1.0" encoding="utf-8"?>
<!-- Generator: Adobe Illustrator 23.0.3, SVG Export Plug-In . SVG Version: 6.00 Build 0)  -->
<svg version="1.1" id="Layer_1" xmlns="http://www.w3.org/2000/svg" xmlns:xlink="http://www.w3.org/1999/xlink" x="0px" y="0px"
	 viewBox="0 0 42.1 55.5" style="enable-background:new 0 0 42.1 55.5;" xml:space="preserve">
<style type="text/css">
	.st0{fill:#B12E3B;}
	.st1{fill:#E5D2D7;}
	.st2{fill:#FFFFFF;}
	.st3{opacity:0.25;fill:#651019;}
</style>
<path class="st0" d="M1.9,5c0,0,6.7,44,6.7,46.1c0,2.1,5.8,4.4,12.5,4.4s11.9-2.1,12.5-4.1c0.6-2,6.6-46.4,6.6-46.4S21,9.8,1.9,5z"
	/>
<g>
	<ellipse class="st1" cx="21" cy="3.7" rx="20.8" ry="3.4"/>
	<path class="st2" d="M21,7.3c-5.6,0-10.8-0.4-14.7-1C2.1,5.6,0,4.7,0,3.7s2.1-2,6.3-2.7c3.9-0.6,9.2-1,14.7-1s10.8,0.4,14.7,1
		c4.2,0.7,6.3,1.6,6.3,2.7s-2.1,2-6.3,2.7C31.8,7,26.6,7.3,21,7.3z M21,0.5C7.8,0.5,0.5,2.4,0.5,3.7S7.8,6.8,21,6.8
		c13.2,0,20.5-1.9,20.5-3.2S34.3,0.5,21,0.5z"/>
</g>
<path class="st3" d="M21.2,9.6c-14.9,0-18.8-2.3-19-2.4L2.3,7c0,0,4.1,2.4,18.9,2.4C36,9.3,39.8,7,39.8,7L40,7.2
	C39.8,7.3,36.1,9.6,21.2,9.6z"/>
<path class="st3" d="M21.1,13.9c-7.2,0-11.8-0.7-14.4-1.4c-2.8-0.7-3.9-1.3-4-1.4l0.1-0.2c0,0,4.5,2.7,18.2,2.7
	c7.1,0,11.7-0.7,14.3-1.3c2.8-0.7,3.9-1.3,3.9-1.3l0.1,0.2C39.4,11.2,34.8,13.9,21.1,13.9z"/>
<path class="st3" d="M21,18.8C7.5,18.8,3.6,16,3.5,15.9l0.2-0.2c0,0,4,2.9,17.4,2.9c7,0,11.4-0.8,13.9-1.4c2.7-0.7,3.7-1.4,3.7-1.4
	l0.1,0.2C38.6,16,34.6,18.8,21,18.8z"/>
</svg>
